# Blender v3.2.0 OBJ File: ''
# www.blender.org
mtllib shuriken_model_a.mtl
o ShurikenA_Cube.002
v -0.530685 -0.091139 0.530685
v -0.530685 0.091139 0.530685
v -0.530685 -0.091139 -0.530685
v -0.530685 0.091139 -0.530685
v 0.530685 -0.091139 0.530685
v 0.530685 0.091139 0.530685
v 0.530685 -0.091139 -0.530685
v 0.530685 0.091139 -0.530685
v 1.530685 0.000000 0.000000
v -1.530685 0.000000 0.000000
v 0.000000 0.000000 -1.530685
v 0.000000 0.000000 1.530685
v -0.371129 0.000000 0.000000
v 0.000000 0.000000 0.371129
v 0.000000 0.000000 -0.371129
v 0.371129 0.000000 0.000000
vt 0.375000 1.000000
vt 0.625000 1.000000
vt 0.375000 1.000000
vt 0.625000 0.500000
vt 0.375000 0.500000
vt 0.625000 0.500000
vt 0.625000 0.750000
vt 0.375000 0.750000
vt 0.625000 0.750000
vt 0.875000 0.750000
vt 0.625000 0.750000
vt 0.125000 0.750000
vt 0.125000 0.500000
vt 0.125000 0.500000
vt 0.125000 0.750000
vt 0.625000 0.750000
vt 0.875000 0.750000
vt 0.375000 0.750000
vt 0.625000 0.500000
vt 0.375000 0.500000
vt 0.875000 0.500000
vt 0.875000 0.750000
vt 0.375000 0.500000
vt 0.875000 0.500000
vt 0.375000 0.250000
vt 0.625000 0.250000
vt 0.375000 0.250000
vt 0.125000 0.500000
vt 0.625000 0.250000
vt 0.375000 0.750000
vt 0.625000 1.000000
vt 0.125000 0.750000
vt 0.375000 0.750000
vt 0.375000 0.500000
vt 0.875000 0.500000
vt 0.625000 0.500000
vn -0.4688 0.0000 0.8833
vn 0.8833 0.0000 -0.4688
vn 0.4688 0.0000 0.8833
vn 0.0000 0.9959 0.0908
vn 0.2925 -0.9533 -0.0758
vn -0.0758 0.9533 -0.2925
vn 0.0908 -0.9959 0.0000
vn 0.0908 0.9959 0.0000
vn 0.4688 0.0000 -0.8833
vn -0.0908 0.9959 0.0000
vn 0.0000 -0.9959 -0.0908
vn 0.0000 0.9959 -0.0908
vn -0.8833 0.0000 -0.4688
vn -0.0908 -0.9959 0.0000
vn -0.4688 0.0000 -0.8833
vn 0.8833 0.0000 0.4688
vn -0.8833 0.0000 0.4688
vn 0.0000 -0.9959 0.0908
vn -0.2925 -0.9533 0.0758
vn 0.0758 0.9533 0.2925
vn -0.0758 -0.9533 -0.2925
vn -0.2925 0.9533 0.0758
vn 0.0758 -0.9533 0.2925
vn 0.2925 0.9533 -0.0758
usemtl None
s off
f 1/1/1 2/2/1 10/3/1
f 8/4/2 7/5/2 11/6/2
f 6/7/3 5/8/3 9/9/3
f 6/7/4 2/10/4 12/11/4
f 1/12/5 3/13/5 13/14/5 14/15/5
f 2/10/6 6/7/6 16/16/6 14/17/6
f 5/8/7 7/5/7 9/18/7
f 8/4/8 6/7/8 9/19/8
f 7/5/9 8/4/9 9/20/9
f 2/10/10 4/21/10 10/22/10
f 7/5/11 3/13/11 11/23/11
f 4/21/12 8/4/12 11/24/12
f 3/25/13 4/26/13 11/27/13
f 3/13/14 1/12/14 10/28/14
f 4/26/15 3/25/15 10/29/15
f 5/8/16 6/7/16 12/30/16
f 2/2/17 1/1/17 12/31/17
f 1/12/18 5/8/18 12/32/18
f 7/5/19 5/8/19 16/33/19 15/34/19
f 8/4/20 4/21/20 13/35/20 15/36/20
f 5/8/21 1/12/21 14/15/21 16/33/21
f 6/7/22 8/4/22 15/36/22 16/16/22
f 3/13/23 7/5/23 15/34/23 13/14/23
f 4/21/24 2/10/24 14/17/24 13/35/24
