# Blender v3.2.0 OBJ File: ''
# www.blender.org
mtllib shuriken_model_b.mtl
o ShurikenB_ShurikenB_ShurikenB_Cube.001
v -0.308346 0.308346 -0.308346
v 0.308346 -0.308346 -0.308346
v 0.084980 -0.254939 -0.254939
v -0.254939 0.084980 -0.254939
v -0.106225 0.262021 -0.254939
v 0.233695 -0.077898 -0.254939
v -0.308346 -0.308346 0.308346
v -0.250690 -0.086396 0.254939
v -0.199703 0.236527 -0.084980
v 0.254939 -0.254939 -0.084980
v -0.084980 -0.254939 0.254939
v -0.655380 -0.655379 -0.655380
v -0.254939 -0.254939 0.084980
v 0.089229 0.253523 0.254939
v -0.655380 0.655379 0.655380
v 0.308346 0.308346 0.308346
v 0.233695 0.262021 0.084980
v 0.655380 0.655380 -0.655379
v 0.254939 0.084980 0.254939
v 0.655380 -0.655380 0.655379
vt 0.000000 0.000000
vt 0.000000 0.000000
vt 0.000000 0.000000
vt 0.000000 0.000000
vt 0.000000 0.000000
vt 0.000000 0.000000
vt 0.000000 0.000000
vt 0.000000 0.000000
vt 0.000000 0.000000
vt 0.000000 0.000000
vt 0.000000 0.000000
vt 0.000000 0.000000
vt 0.000000 0.000000
vt 0.000000 0.000000
vt 0.000000 0.000000
vt 0.000000 0.000000
vt 0.000000 0.000000
vt 0.000000 0.000000
vt 0.000000 0.000000
vt 0.000000 0.000000
vn -0.2872 -0.2872 -0.9138
vn 0.3085 0.3085 -0.8998
vn -0.8043 0.4448 0.3940
vn 0.2872 -0.9138 0.2872
vn 0.3144 0.3144 -0.8957
vn -0.2872 -0.9138 -0.2872
vn -0.9138 -0.2872 -0.2872
vn 0.3132 -0.3132 0.8966
vn 0.3144 -0.8957 0.3144
vn -0.8957 0.3144 0.3144
vn -0.4014 0.8400 0.3650
vn -0.2954 0.2954 0.9086
vn 0.8850 -0.3292 0.3292
vn 0.3153 0.8960 -0.3128
vn -0.8806 -0.2704 -0.3890
vn 0.2851 0.9151 -0.2851
vn 0.8589 0.3622 -0.3622
vn 0.8957 0.3144 -0.3144
vn -0.3053 0.9020 0.3053
vn -0.3113 -0.3113 -0.8979
vn 0.2872 -0.2872 0.9138
vn 0.9138 -0.2872 0.2872
vn -0.3144 0.3144 0.8957
vn -0.3144 -0.8957 -0.3144
usemtl None.005
s 1
f 1/1/1 2/2/1 3/3/1 4/4/1
f 2/2/2 1/1/2 5/5/2 6/6/2
f 1/1/3 7/7/3 8/8/3 9/9/3
f 7/7/4 2/2/4 10/10/4 11/11/4
f 4/4/5 3/3/5 12/12/5
f 2/2/6 7/7/6 13/13/6 3/3/6
f 7/7/7 1/1/7 4/4/7 13/13/7
f 8/8/8 14/14/8 15/15/8
f 3/3/9 13/13/9 12/12/9
f 13/13/10 4/4/10 12/12/10
f 16/16/11 1/1/11 9/9/11 14/14/11
f 7/7/12 16/16/12 14/14/12 8/8/12
f 17/17/13 6/6/13 18/18/13
f 14/14/14 9/9/14 15/15/14
f 9/9/15 8/8/15 15/15/15
f 1/1/16 16/16/16 17/17/16 5/5/16
f 16/16/17 2/2/17 6/6/17 17/17/17
f 10/10/18 19/19/18 20/20/18
f 5/5/19 17/17/19 18/18/19
f 6/6/20 5/5/20 18/18/20
f 16/16/21 7/7/21 11/11/21 19/19/21
f 2/2/22 16/16/22 19/19/22 10/10/22
f 19/19/23 11/11/23 20/20/23
f 11/11/24 10/10/24 20/20/24
