# Blender v3.2.0 OBJ File: ''
# www.blender.org
mtllib shuriken_model_c.mtl
o ShurikenC_ShurikenC_ShurikenA_Cube.002
v -0.719037 -0.054069 -0.314832
v -0.719037 -0.054069 0.314832
v -1.171184 0.000000 0.000000
v -0.314832 0.054069 -0.719037
v 0.314832 0.054069 -0.719037
v 0.000000 0.000000 -1.171184
v -0.719037 0.054069 -0.314832
v -0.452259 0.074614 -0.434460
v -0.434460 0.074613 0.452259
v 0.000000 -0.000000 0.394856
v -0.394856 0.000000 0.000000
v 0.452259 -0.074614 0.434460
v -0.434460 -0.074614 0.452259
v 0.394856 0.000000 0.000000
v -0.719037 0.054069 0.314832
v 0.314832 -0.054069 -0.719037
v -0.314832 -0.054069 -0.719037
v -0.452259 -0.074613 -0.434460
v 0.434460 -0.074613 -0.452259
v 0.000000 0.000000 -0.394856
v 0.434460 0.074614 -0.452259
v 0.314832 0.054069 0.719037
v -0.314832 0.054069 0.719037
v 0.000000 -0.000000 1.171184
v 0.314832 -0.054069 0.719037
v 0.719037 0.054069 -0.314832
v 0.719037 0.054069 0.314832
v 1.171184 0.000000 0.000000
v 0.719037 -0.054069 0.314832
v 0.452259 0.074613 0.434460
v 0.719037 -0.054069 -0.314832
v -0.314832 -0.054069 0.719037
v -0.801257 -0.000000 0.801257
v 0.801257 0.000000 -0.801257
v 0.801257 -0.000000 0.801257
v -0.801257 0.000000 -0.801257
vt 0.125000 0.500000
vt 0.125000 0.672996
vt 0.125000 0.500000
vt 0.875000 0.500000
vt 0.702003 0.500000
vt 0.875000 0.500000
vt 0.625000 0.250000
vt 0.452003 0.250000
vt 0.625000 0.250000
vt 0.875000 0.500000
vt 0.875000 0.750000
vt 0.875000 0.750000
vt 0.875000 0.500000
vt 0.375000 0.750000
vt 0.125000 0.750000
vt 0.125000 0.750000
vt 0.375000 0.750000
vt 0.875000 0.750000
vt 0.875000 0.577003
vt 0.875000 0.750000
vt 0.375000 0.500000
vt 0.202003 0.500000
vt 0.375000 0.500000
vt 0.125000 0.500000
vt 0.375000 0.500000
vt 0.375000 0.500000
vt 0.125000 0.500000
vt 0.625000 0.500000
vt 0.625000 0.500000
vt 0.625000 0.750000
vt 0.797996 0.750000
vt 0.625000 0.750000
vt 0.375000 0.750000
vt 0.547997 0.750000
vt 0.375000 0.750000
vt 0.625000 0.500000
vt 0.625000 0.672996
vt 0.625000 0.500000
vt 0.375000 0.250000
vt 0.547997 0.250000
vt 0.375000 0.250000
vt 0.625000 0.750000
vt 0.452003 0.750000
vt 0.625000 0.750000
vt 0.375000 1.000000
vt 0.547997 1.000000
vt 0.375000 1.000000
vt 0.625000 0.750000
vt 0.625000 0.750000
vt 0.375000 0.750000
vt 0.375000 0.577003
vt 0.375000 0.750000
vt 0.125000 0.750000
vt 0.297996 0.750000
vt 0.125000 0.750000
vt 0.625000 0.500000
vt 0.452003 0.500000
vt 0.625000 0.500000
vt 0.375000 0.500000
vt 0.547997 0.500000
vt 0.375000 0.500000
vt 0.380635 1.000000
vt 0.413502 1.000000
vt 0.875000 0.750000
vt 0.875000 0.749255
vt 0.630635 0.500000
vt 0.413502 0.500000
vt 0.381565 0.500000
vt 0.625000 0.711498
vt 0.413502 0.750000
vt 0.381565 0.750000
vt 0.125744 0.500000
vt 0.874255 0.500000
vt 0.875000 0.500000
vt 0.452003 1.000000
vt 0.625000 1.000000
vt 0.452003 1.000000
vt 0.702003 0.500000
vt 0.547997 0.750000
vt 0.202003 0.500000
vt 0.625000 1.000000
vt 0.375000 1.000000
vt 0.413502 0.750000
vt 0.625000 0.711498
vt 0.452003 0.750000
vt 0.547997 0.250000
vt 0.875000 0.750000
vt 0.547997 1.000000
vt 0.547997 0.500000
vt 0.452003 0.250000
vt 0.875000 0.500000
vt 0.413502 0.500000
vt 0.452003 0.500000
vn -0.1591 -0.9850 0.0667
vn -0.1779 -0.9828 -0.0502
vn -0.1187 -0.9929 -0.0000
vn 0.0666 0.9850 -0.1591
vn -0.0503 0.9827 -0.1780
vn 0.0000 0.9929 -0.1187
vn -0.5787 -0.0776 -0.8119
vn -0.6076 0.0632 -0.7917
vn -0.5714 0.0000 -0.8207
vn 0.3710 0.9209 -0.1194
vn -0.1194 -0.9209 -0.3710
vn -0.1591 0.9850 -0.0666
vn -0.1780 0.9827 0.0503
vn -0.1187 0.9929 0.0000
vn -0.0667 -0.9850 -0.1591
vn 0.0502 -0.9828 -0.1779
vn 0.0000 -0.9929 -0.1187
vn 0.1194 -0.9209 0.3710
vn 0.1194 0.9209 0.3710
vn -0.0666 0.9850 0.1591
vn 0.0503 0.9827 0.1780
vn 0.0000 0.9929 0.1187
vn 0.8119 0.0775 0.5787
vn 0.7917 -0.0631 0.6076
vn 0.8207 0.0000 0.5714
vn 0.1591 0.9850 0.0666
vn 0.1780 0.9827 -0.0503
vn 0.1187 0.9929 0.0000
vn 0.3710 -0.9209 -0.1195
vn -0.8119 0.0775 -0.5787
vn -0.7917 -0.0631 -0.6076
vn -0.8207 0.0000 -0.5714
vn 0.5787 -0.0776 0.8119
vn 0.6076 0.0632 0.7917
vn 0.5714 0.0000 0.8207
vn -0.5787 0.0775 0.8119
vn -0.6076 -0.0631 0.7917
vn -0.5714 0.0000 0.8207
vn -0.1194 0.9209 -0.3710
vn 0.1591 -0.9850 -0.0667
vn 0.1779 -0.9828 0.0502
vn 0.1187 -0.9929 -0.0000
vn -0.3710 0.9209 0.1195
vn 0.0667 -0.9850 0.1591
vn -0.0502 -0.9828 0.1779
vn 0.0000 -0.9929 0.1187
vn 0.8119 -0.0776 -0.5787
vn 0.7917 0.0632 -0.6076
vn 0.8207 0.0000 -0.5714
vn -0.3710 -0.9209 0.1194
vn 0.5787 0.0775 -0.8119
vn 0.6076 -0.0631 -0.7917
vn 0.5714 0.0000 -0.8207
vn -0.0673 -0.9827 0.1728
vn -0.1370 -0.9811 0.1370
vn -0.1793 -0.9812 0.0710
vn -0.1710 0.9830 0.0664
vn -0.1370 0.9811 0.1370
vn -0.0717 0.9810 0.1803
vn 0.1710 0.9830 -0.0664
vn 0.1370 0.9811 -0.1370
vn 0.0718 0.9810 -0.1803
vn 0.0673 -0.9827 -0.1728
vn 0.1370 -0.9811 -0.1370
vn 0.1793 -0.9812 -0.0710
vn 0.1803 0.9810 0.0717
vn 0.0664 0.9830 0.1710
vn 0.1370 0.9811 0.1370
vn 0.1728 -0.9827 0.0673
vn 0.1370 -0.9811 0.1370
vn 0.0710 -0.9812 0.1793
vn -0.0710 -0.9812 -0.1793
vn -0.1728 -0.9827 -0.0673
vn -0.1370 -0.9811 -0.1370
vn -0.1370 0.9811 -0.1370
vn -0.1803 0.9810 -0.0718
vn -0.0664 0.9830 -0.1710
vn 0.1089 0.0526 0.9927
vn 0.0913 -0.0193 0.9956
vn 0.6445 0.0142 0.7644
vn 0.1541 0.9871 -0.0438
vn 0.0651 0.9839 -0.1666
vn -0.0800 0.9143 0.3970
vn 0.0777 0.9952 0.0594
vn -0.0498 0.9987 0.0146
vn 0.0009 0.9972 0.0743
vn -0.1090 -0.0525 0.9927
vn -0.0914 0.0193 0.9956
vn -0.6445 -0.0142 0.7644
vn -0.0591 -0.9954 -0.0760
vn -0.0153 -0.9985 0.0523
vn -0.0743 -0.9972 0.0009
vn -0.0743 0.9972 0.0009
vn -0.0594 0.9952 0.0777
vn -0.0146 0.9987 -0.0498
vn -0.1541 -0.9871 -0.0439
vn -0.0651 -0.9839 -0.1667
vn 0.0800 -0.9143 0.3970
vn 0.0009 -0.9972 0.0743
vn -0.0760 -0.9954 0.0591
vn 0.0523 -0.9985 0.0153
vn 0.0743 0.9972 -0.0009
vn 0.0594 0.9952 -0.0777
vn 0.0146 0.9986 0.0499
vn 0.0591 -0.9954 0.0760
vn 0.0153 -0.9985 -0.0523
vn 0.0743 -0.9972 -0.0009
vn -0.0009 -0.9972 -0.0743
vn 0.0760 -0.9954 -0.0591
vn -0.0523 -0.9985 -0.0153
vn -0.0777 0.9952 -0.0594
vn 0.0499 0.9986 -0.0146
vn -0.0009 0.9972 -0.0743
vn -0.8119 -0.0776 0.5787
vn -0.7917 0.0632 0.6076
vn -0.8207 0.0000 0.5714
vn -0.0439 -0.9871 0.1541
vn -0.1667 -0.9839 0.0651
vn 0.3268 -0.9204 -0.2145
vn 0.1541 -0.9871 0.0439
vn 0.0651 -0.9839 0.1667
vn -0.2145 -0.9204 -0.3268
vn 0.0438 0.9871 0.1541
vn 0.1666 0.9839 0.0651
vn -0.3268 0.9204 -0.2145
vn 0.9927 0.0526 -0.1089
vn 0.9956 -0.0193 -0.0913
vn 0.7644 0.0142 -0.6445
vn 0.1090 -0.0525 -0.9927
vn 0.0914 0.0193 -0.9956
vn 0.6430 -0.0412 -0.7647
vn -0.1541 0.9871 0.0438
vn -0.0651 0.9839 0.1666
vn 0.2145 0.9204 -0.3268
vn -0.9927 -0.0525 -0.1090
vn -0.9956 0.0193 -0.0914
vn -0.7644 -0.0142 -0.6445
vn 0.9927 -0.0525 0.1090
vn 0.9956 0.0193 0.0914
vn 0.7647 -0.0412 0.6430
vn -0.9927 0.0526 0.1089
vn -0.9956 -0.0193 0.0913
vn -0.7647 0.0412 0.6430
vn -0.0438 0.9871 -0.1541
vn -0.1666 0.9839 -0.0651
vn 0.3970 0.9143 0.0800
vn 0.0439 -0.9871 -0.1541
vn 0.1667 -0.9839 -0.0651
vn -0.3970 -0.9143 0.0800
vn -0.1089 0.0526 -0.9927
vn -0.0913 -0.0193 -0.9956
vn -0.6430 0.0412 -0.7647
usemtl None.004
s off
f 1/1/1 2/2/2 3/3/3
f 4/4/4 5/5/5 6/6/6
f 7/7/7 1/8/8 3/9/9
f 8/10/10 9/11/10 10/12/10 11/13/10
f 12/14/11 13/15/11 10/16/11 14/17/11
f 15/18/12 7/19/13 3/20/14
f 16/21/15 17/22/16 6/23/17
f 18/24/18 19/25/18 20/26/18 11/27/18
f 21/28/19 8/10/19 11/13/19 20/29/19
f 22/30/20 23/31/21 24/32/22
f 25/33/23 22/34/24 24/35/25
f 26/36/26 27/37/27 28/38/28
f 13/15/29 18/24/29 11/27/29 10/16/29
f 17/39/30 4/40/31 6/41/32
f 27/42/33 29/43/34 28/44/35
f 2/45/36 15/46/37 3/47/38
f 9/11/39 30/48/39 14/49/39 10/12/39
f 29/50/40 31/51/41 28/52/42
f 30/48/43 21/28/43 20/29/43 14/49/43
f 32/53/44 25/54/45 24/55/46
f 5/56/47 16/57/48 6/58/49
f 19/25/50 12/14/50 14/17/50 20/26/50
f 31/59/51 26/60/52 28/61/53
f 2/45/54 13/62/55 32/63/56
f 23/64/57 9/65/58 15/18/59
f 5/5/60 21/66/61 26/36/62
f 31/67/63 19/68/64 16/57/65
f 22/30/66 27/69/67 30/48/68
f 25/70/69 12/71/70 29/43/71
f 1/1/72 17/22/73 18/72/74
f 8/73/75 4/4/76 7/74/77
f 32/75/78 23/76/79 33/77/80
f 5/5/81 26/36/82 34/78/83
f 23/31/84 22/30/85 30/48/86 9/11/86
f 22/34/87 25/33/88 35/79/89
f 2/2/90 1/1/91 18/24/92 13/15/92
f 9/11/93 8/10/93 7/19/94 15/18/95
f 17/22/96 1/1/97 36/80/98
f 13/15/99 12/14/99 25/54/100 32/53/101
f 21/28/102 30/48/102 27/37/103 26/36/104
f 31/51/105 29/50/106 12/14/107 19/25/107
f 19/25/108 18/24/108 17/22/109 16/21/110
f 5/5/111 4/4/112 8/10/113 21/28/113
f 23/76/114 32/75/115 24/81/116
f 2/45/117 32/63/118 33/82/119
f 25/70/120 29/43/121 35/83/122
f 27/69/123 22/30/124 35/84/125
f 29/43/126 27/42/127 35/85/128
f 4/40/129 17/39/130 36/86/131
f 23/64/132 15/18/133 33/87/134
f 15/46/135 2/45/136 33/88/137
f 26/60/138 31/59/139 34/89/140
f 1/8/141 7/7/142 36/90/143
f 7/74/144 4/4/145 36/91/146
f 31/67/147 16/57/148 34/92/149
f 16/57/150 5/56/151 34/93/152
