# Blender v3.2.0 OBJ File: 'carrot.blend'
# www.blender.org
mtllib carrot.mtl
o Carrot_Cylinder
v -0.000000 0.622299 -0.604533
v -0.000000 1.765641 -1.000000
v 0.355336 0.622299 -0.489077
v 0.587785 1.765641 -0.809017
v 0.574945 0.622299 -0.186811
v 0.951056 1.765641 -0.309017
v 0.574945 0.622299 0.186811
v 0.951056 1.765641 0.309017
v 0.355335 0.622299 0.489077
v 0.587785 1.765641 0.809017
v -0.000000 0.622299 0.604533
v -0.000000 1.765641 1.000000
v -0.355336 0.622299 0.489077
v -0.587785 1.765641 0.809017
v -0.574945 0.622299 0.186811
v -0.951056 1.765641 0.309017
v -0.574945 0.622299 -0.186811
v -0.951056 1.765641 -0.309017
v -0.355336 0.622299 -0.489077
v -0.587785 1.765641 -0.809017
v 0.631312 2.586924 -0.868927
v 0.000000 2.586924 -1.074052
v 1.021484 2.586924 -0.331900
v 1.021484 2.586924 0.331900
v 0.631312 2.586924 0.868927
v -0.000000 2.586924 1.074052
v -0.631312 2.586924 0.868926
v -1.021484 2.586924 0.331901
v -1.021484 2.586924 -0.331901
v -0.631312 2.586924 -0.868926
v 0.460232 3.434700 -0.633455
v -0.000000 3.434700 -0.782993
v 0.744671 3.434700 -0.241958
v 0.744671 3.434700 0.241958
v 0.460232 3.434700 0.633455
v -0.000000 3.434700 0.782993
v -0.460232 3.434700 0.633455
v -0.744671 3.434700 0.241958
v -0.744671 3.434700 -0.241958
v -0.460232 3.434700 -0.633455
v -0.261242 3.626365 -0.081335
v -0.261242 3.626365 0.084401
v -0.014443 3.626365 0.305060
v 0.151424 3.626365 0.218484
v 0.000000 -0.084180 0.000000
v 0.248841 3.626365 0.084401
v 0.248841 3.626365 -0.081335
v -0.014443 3.626365 -0.296522
v 0.151424 3.626365 -0.215418
v -0.163825 3.626365 -0.215418
v -0.218663 3.921505 -0.202232
v -0.383189 3.921505 -0.048229
v -0.339783 3.921505 0.227991
v -0.191244 3.626365 0.247614
v 0.297450 3.921505 0.276743
v 0.475153 3.921505 0.110035
v 0.418570 3.921505 -0.096027
v 0.087188 3.921505 -0.262734
v 0.075452 3.921505 0.110035
v -0.131851 3.921505 -0.012310
v 0.650668 4.236450 0.484439
v 0.865507 4.236450 0.214212
v 0.729905 4.236450 -0.061966
v 0.379879 4.198728 0.214212
v -0.741618 4.127302 0.158531
v -0.576694 4.127302 0.490001
v -0.497529 4.127302 -0.185157
v -0.228394 4.127302 0.158531
v 0.232594 4.360481 -0.092806
v 0.151125 4.360481 -0.204939
v 0.069656 4.360481 0.045798
v -0.031046 4.360481 -0.092806
v 0.499147 5.183694 -0.109862
v 0.221791 5.094190 -0.510995
v -0.055565 5.004685 0.385966
v -0.398396 4.894051 -0.109862
v 0.109052 5.842159 -0.101055
v -0.065128 5.785950 -0.352967
v -0.239308 5.729742 0.210326
v -0.454607 5.660263 -0.101055
v 0.707341 4.539601 0.414120
v 0.860798 4.539601 0.202904
v 0.813125 4.539601 0.002540
v 0.553884 4.539601 0.202904
v -0.705680 4.384228 0.169427
v -0.601528 4.384228 0.308532
v -0.531064 4.384228 -0.070910
v -0.356449 4.384228 0.169427
v 0.113873 5.451540 -0.529362
v 0.403221 5.544914 -0.110885
v -0.533128 5.242748 -0.110885
v -0.175474 5.358165 0.406380
v -0.574718 4.455638 0.183611
v 0.745705 4.609441 0.190439
v -0.231902 5.969598 -0.086188
vt 1.000000 0.500000
vt 1.000000 1.000000
vt 0.900000 1.000000
vt 0.900000 0.500000
vt 0.800000 1.000000
vt 0.800000 0.500000
vt 0.700000 1.000000
vt 0.700000 0.500000
vt 0.600000 1.000000
vt 0.600000 0.500000
vt 0.500000 1.000000
vt 0.500000 0.500000
vt 0.400000 1.000000
vt 0.400000 0.500000
vt 0.300000 1.000000
vt 0.300000 0.500000
vt 0.200000 1.000000
vt 0.200000 0.500000
vt 0.100000 1.000000
vt 0.200000 1.000000
vt 0.100000 1.000000
vt 0.100000 0.500000
vt -0.000000 1.000000
vt -0.000000 0.500000
vt 0.500000 0.500000
vt 0.600000 1.000000
vt 0.700000 1.000000
vt 0.700000 1.000000
vt 0.600000 1.000000
vt 0.300000 1.000000
vt 0.400000 1.000000
vt 0.500000 1.000000
vt 1.000000 1.000000
vt 0.900000 1.000000
vt 0.800000 1.000000
vt -0.000000 1.000000
vt 0.900000 1.000000
vt 1.000000 1.000000
vt 1.000000 1.000000
vt 0.900000 1.000000
vt 0.300000 1.000000
vt 0.200000 1.000000
vt 0.500000 1.000000
vt 0.800000 1.000000
vt 0.100000 1.000000
vt 0.400000 1.000000
vt -0.000000 1.000000
vt 0.100000 1.000000
vt -0.000000 1.000000
vt 0.600000 0.500000
vt 0.700000 0.500000
vt 1.000000 0.500000
vt 0.800000 0.500000
vt 0.900000 0.500000
vt 0.100000 0.500000
vt 0.200000 0.500000
vt 0.300000 0.500000
vt 0.400000 0.500000
vt 0.800000 1.000000
vt 0.700000 1.000000
vt 0.500000 1.000000
vt 0.400000 1.000000
vt 0.200000 1.000000
vt 0.600000 1.000000
vt 0.300000 1.000000
vt 0.800000 1.000000
vt 0.700000 1.000000
vt 0.200000 1.000000
vt 0.100000 1.000000
vt 0.900000 1.000000
vt 0.600000 1.000000
vt 0.300000 1.000000
vt 0.511765 1.000000
vt 0.800000 1.000000
vt 0.700000 1.000000
vt 0.423529 1.000000
vt 0.423529 1.000000
vt 0.900000 1.000000
vt 0.200000 1.000000
vt 0.100000 1.000000
vt 0.511765 1.000000
vt 0.600000 1.000000
vt 0.600000 1.000000
vt 0.511765 1.000000
vt 0.423529 1.000000
vt 0.100000 1.000000
vt 0.423529 1.000000
vt 0.300000 1.000000
vt 0.511765 1.000000
vt 0.511765 1.000000
vt 0.423529 1.000000
vt 0.800000 1.000000
vt 0.800000 1.000000
vt 0.900000 1.000000
vt 0.900000 1.000000
vt 0.800000 1.000000
vt 0.900000 1.000000
vt 0.800000 1.000000
vt 0.423529 1.000000
vt 0.511765 1.000000
vt 0.423529 1.000000
vt 0.423529 1.000000
vt 0.511765 1.000000
vt 0.511765 1.000000
vt 0.700000 1.000000
vt 0.800000 1.000000
vt 0.300000 1.000000
vt 0.300000 1.000000
vt 0.200000 1.000000
vt 0.200000 1.000000
vt 0.423529 1.000000
vt 0.100000 1.000000
vt 0.600000 1.000000
vt 0.800000 1.000000
vt 0.700000 1.000000
vt 0.800000 1.000000
vt 0.900000 1.000000
vt 0.511765 1.000000
vn 0.2935 -0.3125 -0.9034
vn 0.7685 -0.3125 -0.5584
vn 0.9499 -0.3125 0.0000
vn 0.7685 -0.3125 0.5584
vn 0.2935 -0.3125 0.9034
vn -0.2935 -0.3125 0.9034
vn -0.7685 -0.3125 0.5584
vn -0.9499 -0.3125 0.0000
vn -0.8061 -0.0854 -0.5856
vn -0.7685 -0.3125 -0.5584
vn -0.2935 -0.3125 -0.9034
vn -0.2397 -0.6312 0.7377
vn 0.7691 0.3104 0.5588
vn -0.9963 -0.0854 0.0000
vn -0.8061 -0.0854 0.5856
vn -0.3079 -0.0854 0.9476
vn 0.3079 -0.0854 0.9476
vn 0.8061 -0.0854 0.5856
vn 0.3079 -0.0854 -0.9476
vn 0.9963 -0.0854 0.0000
vn 0.8061 -0.0854 -0.5856
vn -0.3079 -0.0854 -0.9476
vn 0.1281 0.9288 -0.3478
vn 0.2938 0.3104 -0.9041
vn -0.9506 0.3104 0.0000
vn 0.2938 0.3104 0.9041
vn 0.7691 0.3104 -0.5588
vn -0.7691 0.3104 -0.5588
vn -0.2938 0.3104 0.9041
vn 0.9506 0.3104 0.0000
vn -0.2938 0.3104 -0.9041
vn -0.7691 0.3104 0.5588
vn -0.1329 0.9268 -0.3513
vn 0.2397 -0.6312 0.7377
vn 0.6275 -0.6312 0.4559
vn 0.2397 -0.6312 -0.7377
vn 0.7756 -0.6312 0.0000
vn 0.6275 -0.6312 -0.4559
vn -0.2397 -0.6312 -0.7377
vn -0.6275 -0.6312 -0.4559
vn -0.7756 -0.6312 0.0000
vn -0.6275 -0.6312 0.4559
vn 0.3606 0.9327 0.0000
vn -0.1211 0.9201 0.3726
vn -0.2971 0.9301 -0.2158
vn 0.2918 0.9327 -0.2120
vn 0.1321 0.9273 0.3503
vn -0.3686 0.9296 0.0000
vn 0.8249 -0.5511 -0.1255
vn -0.3221 0.9241 0.2058
vn 0.2928 0.9322 0.2127
vn -0.7296 -0.1665 -0.6634
vn 0.5643 -0.1854 -0.8045
vn 0.4290 -0.3745 0.8220
vn -0.9342 -0.3448 0.0917
vn 0.4388 -0.0484 -0.8973
vn 0.6434 -0.4895 0.5885
vn -0.8423 -0.3999 0.3613
vn -0.4766 -0.0493 -0.8778
vn -0.3966 0.5871 0.7057
vn 0.6723 -0.6901 -0.2679
vn 0.2142 0.6209 0.7540
vn -0.6667 0.1060 -0.7378
vn -0.5884 -0.6484 -0.4831
vn -0.1466 0.6553 -0.7410
vn -0.7198 0.3349 0.6081
vn 0.4741 -0.7706 0.4259
vn -0.4664 0.6299 -0.6210
vn -0.6374 0.3449 0.6891
vn 0.7399 0.3696 -0.5622
vn -0.4718 -0.8667 0.1618
vn 0.5847 0.7114 -0.3900
vn 0.7086 -0.1509 0.6893
vn -0.6954 -0.4455 0.5638
vn -0.6344 0.1921 0.7488
vn 0.5546 0.1342 -0.8212
vn 0.5540 0.1775 0.8134
vn 0.5887 0.6005 -0.5411
vn 0.8087 -0.2823 -0.5161
vn -0.4532 -0.3184 -0.8326
vn 0.6763 -0.2199 0.7030
vn -0.7517 0.5218 0.4033
vn -0.5671 0.1258 -0.8140
vn 0.4991 0.4699 0.7281
vn -0.8287 0.1431 0.5411
vn -0.3194 0.9188 0.2321
vn 0.7942 0.0137 0.6075
vn -0.5991 0.3006 -0.7421
vn 0.9296 -0.0890 -0.3575
vn 0.2958 0.8006 0.5211
vn -0.8042 0.1442 -0.5766
vn 0.5677 0.4065 0.7159
vn -0.8538 0.1805 0.4882
vn -0.7556 -0.2902 0.5872
vn 0.6261 0.1684 0.7613
vn -0.4888 -0.1914 -0.8512
vn 0.7827 0.2062 -0.5872
vn -0.4767 0.8033 0.3569
vn 0.2914 0.9329 -0.2117
vn -0.4287 0.8481 -0.3115
vn 0.4619 0.8210 0.3356
vn -0.3333 0.8384 -0.4312
vn 0.5246 0.8422 -0.1248
vn 0.3049 0.8628 -0.4033
vn -0.5827 0.4520 -0.6754
vn 0.3020 0.7375 0.6041
usemtl Material.001
s off
f 1/1/1 2/2/1 4/3/1 3/4/1
f 3/4/2 4/3/2 6/5/2 5/6/2
f 5/6/3 6/5/3 8/7/3 7/8/3
f 7/8/4 8/7/4 10/9/4 9/10/4
f 9/10/5 10/9/5 12/11/5 11/12/5
f 11/12/6 12/11/6 14/13/6 13/14/6
f 13/14/7 14/13/7 16/15/7 15/16/7
f 15/16/8 16/15/8 18/17/8 17/18/8
f 20/19/9 18/17/9 29/20/9 30/21/9
f 17/18/10 18/17/10 20/19/10 19/22/10
f 19/22/11 20/19/11 2/23/11 1/24/11
f 11/12/12 13/14/12 45/25/12
f 25/26/13 24/27/13 34/28/13 35/29/13
f 18/17/14 16/15/14 28/30/14 29/20/14
f 16/15/15 14/13/15 27/31/15 28/30/15
f 14/13/16 12/11/16 26/32/16 27/31/16
f 12/11/17 10/9/17 25/26/17 26/32/17
f 10/9/18 8/7/18 24/27/18 25/26/18
f 4/3/19 2/2/19 22/33/19 21/34/19
f 8/7/20 6/5/20 23/35/20 24/27/20
f 6/5/21 4/3/21 21/34/21 23/35/21
f 2/23/22 20/19/22 30/21/22 22/36/22
f 31/37/23 32/38/23 48/39/23 49/40/23
f 21/34/24 22/33/24 32/38/24 31/37/24
f 29/20/25 28/30/25 38/41/25 39/42/25
f 26/32/26 25/26/26 35/29/26 36/43/26
f 23/35/27 21/34/27 31/37/27 33/44/27
f 30/21/28 29/20/28 39/42/28 40/45/28
f 27/31/29 26/32/29 36/43/29 37/46/29
f 24/27/30 23/35/30 33/44/30 34/28/30
f 22/36/31 30/21/31 40/45/31 32/47/31
f 28/30/32 27/31/32 37/46/32 38/41/32
f 32/47/33 40/45/33 50/48/33 48/49/33
f 9/10/34 11/12/34 45/50/34
f 7/8/35 9/10/35 45/51/35
f 1/1/36 3/4/36 45/52/36
f 5/6/37 7/8/37 45/53/37
f 3/4/38 5/6/38 45/54/38
f 19/22/39 1/24/39 45/55/39
f 17/18/40 19/22/40 45/56/40
f 15/16/41 17/18/41 45/57/41
f 13/14/42 15/16/42 45/58/42
f 34/28/43 33/44/43 47/59/43 46/60/43
f 37/46/44 36/43/44 43/61/44 54/62/44
f 40/45/45 39/42/45 41/63/45 50/48/45
f 33/44/46 31/37/46 49/40/46 47/59/46
f 36/43/47 35/29/47 44/64/47 43/61/47
f 39/42/48 38/41/48 42/65/48 41/63/48
f 46/60/49 47/59/49 57/66/49 56/67/49
f 38/41/50 37/46/50 54/62/50 42/65/50
f 35/29/51 34/28/51 46/60/51 44/64/51
f 50/48/52 41/63/52 52/68/52 51/69/52
f 47/59/53 49/40/53 58/70/53 57/66/53
f 43/61/54 44/64/54 55/71/54
f 41/63/55 42/65/55 53/72/55 52/68/55
f 49/40/56 48/39/56 58/70/56
f 44/64/57 46/60/57 56/67/57 55/71/57
f 42/65/58 54/62/58 53/72/58
f 48/49/59 50/48/59 51/69/59
f 43/61/60 55/71/60 59/73/60 54/62/60
f 56/67/61 57/66/61 63/74/61 62/75/61
f 54/62/62 59/73/62 60/76/62 53/72/62
f 58/70/63 60/76/63 72/77/63 70/78/63
f 51/69/64 52/68/64 65/79/64 67/80/64
f 60/76/65 58/70/65 48/39/65 51/69/65
f 64/81/66 61/82/66 81/83/66 84/84/66
f 55/71/67 56/67/67 62/75/67 61/82/67
f 57/66/68 59/73/68 64/81/68 63/74/68
f 59/73/69 55/71/69 61/82/69 64/81/69
f 68/85/70 67/80/70 87/86/70 88/87/70
f 52/68/71 53/72/71 66/88/71 65/79/71
f 60/76/72 51/69/72 67/80/72 68/85/72
f 53/72/73 60/76/73 68/85/73 66/88/73
f 72/77/74 71/89/74 75/90/74 76/91/74
f 60/76/75 59/73/75 71/89/75 72/77/75
f 57/66/76 58/70/76 70/78/76 69/92/76
f 59/73/77 57/66/77 69/92/77 71/89/77
f 90/93/78 89/94/78 78/95/78 77/96/78
f 69/92/79 70/78/79 74/97/79 73/98/79
f 70/78/80 72/77/80 76/91/80 74/97/80
f 71/89/81 69/92/81 73/98/81 75/90/81
f 80/99/82 79/100/82 95/101/82
f 89/94/83 91/102/83 80/99/83 78/95/83
f 92/103/84 90/93/84 77/96/84 79/100/84
f 91/102/85 92/103/85 79/100/85 80/99/85
f 84/84/86 81/83/86 94/104/86
f 61/82/87 62/75/87 82/105/87 81/83/87
f 63/74/88 64/81/88 84/84/88 83/106/88
f 62/75/89 63/74/89 83/106/89 82/105/89
f 86/107/90 88/87/90 93/108/90
f 67/80/91 65/79/91 85/109/91 87/86/91
f 66/88/92 68/85/92 88/87/92 86/107/92
f 65/79/93 66/88/93 86/107/93 85/109/93
f 76/91/94 75/90/94 92/103/94 91/102/94
f 75/90/95 73/98/95 90/93/95 92/103/95
f 74/97/96 76/91/96 91/102/96 89/94/96
f 73/98/97 74/97/97 89/94/97 90/93/97
f 85/109/98 86/107/98 93/110/98
f 88/87/99 87/86/99 93/111/99
f 87/86/100 85/109/100 93/112/100
f 81/83/101 82/105/101 94/113/101
f 83/106/102 84/84/102 94/114/102
f 82/105/103 83/106/103 94/115/103
f 77/96/104 78/95/104 95/116/104
f 78/95/105 80/99/105 95/117/105
f 79/100/106 77/96/106 95/118/106
